# xmcd
#
# Track frame offsets:
# 150
# 30225
# 50625
# 80850
# 125550
# 189525
# 257850
# 290100
# 320775
#
# Disc length: 4573 seconds
#
#
# Revision: 0
# Processed by: cddbd v1.5.2PL0 Copyright (c) Steve Scherf et al.
# Submitted via: KELLER's_Musik_Katalog 2006 
#
DISCID=8c11db09
DTITLE=CREAM - The Farewell Tour 1968
DYEAR=2007
DGENRE=Bluesrock
TTITLE0=White Room
TTITLE1=Crossroads
TTITLE2=Sunshine Of Your Love
TTITLE3=Traintime
TTITLE4=Toad
TTITLE5=Spoonfull
TTITLE6=I'm So Glad
TTITLE7=Politician
TTITLE8=Sitting On The Top Of The World
EXTD=Label: Woodstock\nBestellnummer: WT 5103\nFirma: Records Verlagsges. mbH\nEVOE: Rec. 1968\nBesetzung: Eric Clapton - guitar and vocals\nJack Bruce - bass and vocals\nGinger Baker - drums\n\n\n Für freedb bereitgestelt von:\n    KELLER'S Musik-Katalog 
EXTD=2007 2007
EXTT0=
EXTT1=
EXTT2=
EXTT3=
EXTT4=
EXTT5=
EXTT6=
EXTT7=
EXTT8=
PLAYORDER=
